Coordinates
version=1
nRows=17
nColumns=38
inDegrees=yes

Units are S.I. units (second, meters, Newtons, ...)
Angles are in degrees.

endheader
time	pelvis_tilt	pelvis_list	pelvis_rotation	pelvis_tx	pelvis_ty	pelvis_tz	hip_flexion_r	hip_adduction_r	hip_rotation_r	knee_angle_r	ankle_angle_r	subtalar_angle_r	mtp_angle_r	hip_flexion_l	hip_adduction_l	hip_rotation_l	knee_angle_l	ankle_angle_l	subtalar_angle_l	mtp_angle_l	lumbar_extension	lumbar_bending	lumbar_rotation	arm_flex_r	arm_add_r	arm_rot_r	elbow_flex_r	pro_sup_r	wrist_flex_r	wrist_dev_r	arm_flex_l	arm_add_l	arm_rot_l	elbow_flex_l	pro_sup_l	wrist_flex_l	wrist_dev_l
      0.28000000	     -8.97311245	     -2.22728171	     -2.53970257	     -0.26750561	      0.85393271	      2.54466961	     31.40697176	      2.75515462	     -3.42255363	    -20.80243189	     -3.54190954	      0.00000000	      0.00000000	     -2.18734805	     -5.04463081	      5.58531038	    -63.00173170	    -28.02802194	      0.00000000	      0.00000000	     -2.58043945	      4.38858630	     -7.19453061	    -20.83476304	    -36.58889200	      4.62896229	    101.59226080	     78.62069288	      0.00000000	      0.00000000	      1.56200008	    -17.52387739	     -1.40134193	     90.31824328	    101.27114762	      0.00000000	      0.00000000
      0.29000000	     -7.79893679	     -2.97324827	     -3.33228980	     -0.26903716	      0.84791678	      2.54779437	     31.42292463	      3.95996621	     -2.56520054	    -26.28931567	      0.28847939	      0.00000000	      0.00000000	     -1.11420529	     -5.84838451	      5.15950006	    -68.18032980	    -25.64938882	      0.00000000	      0.00000000	     -4.66508812	      5.17481695	     -5.84314154	    -17.28742645	    -37.31748992	      5.49623255	    100.79589598	     77.58508075	      0.00000000	      0.00000000	      0.90769966	    -17.43335385	     -1.82868528	     88.75196862	    101.04178832	      0.00000000	      0.00000000
      0.30000000	     -6.73186543	     -3.71458779	     -4.14567266	     -0.27130703	      0.84086509	      2.55085127	     31.38168623	      5.37166661	     -1.43899189	    -31.69895388	      4.11870177	      0.00000000	      0.00000000	      0.36260620	     -6.70985212	      4.56569268	    -73.53678809	    -23.23275728	      0.00000000	      0.00000000	     -6.55545403	      5.91641133	     -4.26111249	    -13.48287185	    -38.04381909	      6.51452100	    100.04679180	     76.63543835	      0.00000000	      0.00000000	      0.24508851	    -17.24447129	     -2.28133092	     87.16731944	    100.79713958	      0.00000000	      0.00000000
      0.31000000	     -5.90481609	     -4.43114185	     -5.01376034	     -0.27426571	      0.83318951	      2.55387120	     31.25044978	      6.92470910	     -0.09385662	    -36.63675750	      7.81521588	      0.00000000	      0.00000000	      2.38940519	     -7.62373764	      3.81400722	    -78.87629122	    -20.83863807	      0.00000000	      0.00000000	     -8.10285393	      6.60849508	     -2.43065946	     -9.46357549	    -38.72985119	      7.68585032	     99.35865615	     75.86917655	      0.00000000	      0.00000000	     -0.45945277	    -16.90696813	     -2.73798309	     85.57363581	    100.54400733	      0.00000000	      0.00000000
      0.32000000	     -5.48441652	     -5.09685324	     -5.97443767	     -0.27773100	      0.82566055	      2.55671231	     30.96433032	      8.47463017	      1.32252457	    -40.58180859	     11.21101685	      0.00000000	      0.00000000	      5.08080594	     -8.56322876	      2.97015207	    -83.89925548	    -18.54169755	      0.00000000	      0.00000000	     -9.16022462	      7.26096563	     -0.38126502	     -5.32890829	    -39.31892950	      8.97815516	     98.73405207	     75.40484087	      0.00000000	      0.00000000	     -1.26441811	    -16.37072976	     -3.16478761	     83.97409417	    100.29430416	      0.00000000	      0.00000000
      0.33000000	     -5.57992921	     -5.68682262	     -7.01155314	     -0.28131609	      0.81945223	      2.55889508	     30.39108497	      9.82360589	      2.58636155	    -43.09085917	     14.16087193	      0.00000000	      0.00000000	      8.42176107	     -9.46115800	      2.16776547	    -88.28293014	    -16.39666597	      0.00000000	      0.00000000	     -9.66471398	      7.89261001	      1.78062212	     -1.22270802	    -39.73941985	     10.31739092	     98.16813899	     75.34145214	      0.00000000	      0.00000000	     -2.23475962	    -15.61373282	     -3.52841849	     82.37185421	    100.06227912	      0.00000000	      0.00000000
      0.34000000	     -6.10615142	     -6.18607809	     -7.98601354	     -0.28437897	      0.81570038	      2.56007689	     29.32916786	     10.77750607	      3.49481185	    -43.99858723	     16.57820047	      0.00000000	      0.00000000	     12.21507842	    -10.20576283	      1.58201337	    -91.78765377	    -14.41294167	      0.00000000	      0.00000000	     -9.68791671	      8.50810991	      3.87312570	      2.70057057	    -39.91260601	     11.60112631	     97.67206316	     75.72127708	      0.00000000	      0.00000000	     -3.40797918	    -14.66239881	     -3.81363064	     80.79875173	     99.85996283	      0.00000000	      0.00000000
      0.35000000	     -6.74539571	     -6.57739633	     -8.64213832	     -0.28641579	      0.81452587	      2.56041986	     27.56906895	     11.20664507	      3.96222578	    -43.47561787	     18.43716264	      0.00000000	      0.00000000	     16.12243517	    -10.66182524	      1.36834570	    -94.31824700	    -12.55529746	      0.00000000	      0.00000000	     -9.42824742	      9.07833846	      5.67908149	      6.31514679	    -39.77399372	     12.72165613	     97.29170605	     76.50689007	      0.00000000	      0.00000000	     -4.77694910	    -13.59028945	     -4.03040194	     79.33839276	     99.69291646	      0.00000000	      0.00000000
      0.36000000	     -7.12391744	     -6.81610398	     -8.73410179	     -0.28742203	      0.81539253	      2.56011862	     24.98720601	     11.08491635	      4.03958438	    -41.91097882	     19.74493342	      0.00000000	      0.00000000	     19.79907488	    -10.70026050	      1.58712509	    -95.89798907	    -10.77204786	      0.00000000	      0.00000000	     -9.13433773	      9.53524510	      7.01017330	      9.55008063	    -39.30071311	     13.58700926	     97.10164828	     77.58005635	      0.00000000	      0.00000000	     -6.30545032	    -12.49402231	     -4.20524505	     78.11690514	     99.55872642	      0.00000000	      0.00000000
      0.37000000	     -7.05374091	     -6.84632241	     -8.17745239	     -0.28760053	      0.81801251	      2.55921846	     21.63138254	     10.47140213	      3.86340421	    -39.71906330	     20.50427628	      0.00000000	      0.00000000	     23.04893263	    -10.22157138	      2.15510628	    -96.58831243	     -9.03471875	      0.00000000	      0.00000000	     -8.98439129	      9.77757840	      7.77877165	     12.38980519	    -38.52135534	     14.13990276	     97.18038869	     78.76354975	      0.00000000	      0.00000000	     -7.96479750	    -11.46973179	     -4.37091894	     77.26092124	     99.44917073	      0.00000000	      0.00000000
      0.38000000	     -6.62328846	     -6.62115969	     -7.09461838	     -0.28715890	      0.82205840	      2.55781026	     17.74567754	      9.45810662	      3.58256844	    -37.20543676	     20.68606942	      0.00000000	      0.00000000	     25.89000238	     -9.18549824	      2.86847172	    -96.43118799	     -7.36596952	      0.00000000	      0.00000000	     -8.99453013	      9.69380396	      8.04502283	     14.85046559	    -37.49818141	     14.37600451	     97.58411893	     79.85996377	      0.00000000	      0.00000000	     -9.76009158	    -10.60072495	     -4.56365726	     76.84923258	     99.35409090	      0.00000000	      0.00000000
      0.39000000	     -6.10884705	     -6.07927388	     -5.74540980	     -0.28643490	      0.82691944	      2.55601885	     13.69969716	      8.13738366	      3.29893226	    -34.54937174	     20.22185839	      0.00000000	      0.00000000	     28.48489045	     -7.64190802	      3.49192232	    -95.44511175	     -5.83971966	      0.00000000	      0.00000000	     -9.02348150	      9.20776713	      7.98692587	     16.94686216	    -36.30030870	     14.35149979	     98.32791124	     80.69636308	      0.00000000	      0.00000000	    -11.71405522	     -9.93743777	     -4.81558489	     76.89269599	     99.26460230	      0.00000000	      0.00000000
      0.40000000	     -5.80619610	     -5.17309558	     -4.40638860	     -0.28567855	      0.83211144	      2.55409085	      9.85870194	      6.58160658	      3.04336525	    -31.86039038	     19.01567865	      0.00000000	      0.00000000	     31.00701275	     -5.72402385	      3.84989526	    -93.64090956	     -4.55292029	      0.00000000	      0.00000000	     -8.87262799	      8.31282380	      7.80645870	     18.67719860	    -34.99025409	     14.16740906	     99.38065874	     81.16268359	      0.00000000	      0.00000000	    -13.82558849	     -9.47728154	     -5.14081849	     77.34050120	     99.17611525	      0.00000000	      0.00000000
      0.41000000	     -5.89109202	     -3.95112590	     -3.25573906	     -0.28490948	      0.83750947	      2.55230076	      6.46348819	      4.83313174	      2.78216260	    -29.23163681	     16.96619391	      0.00000000	      0.00000000	     33.53780198	     -3.60073146	      3.87511951	    -91.03110304	     -3.58165013	      0.00000000	      0.00000000	     -8.41034879	      7.06665804	      7.65095779	     20.03829048	    -33.62626617	     13.93481892	    100.67908105	     81.23519739	      0.00000000	      0.00000000	    -16.05110141	     -9.17564378	     -5.53142180	     78.08977212	     99.09262856	      0.00000000	      0.00000000
      0.42000000	     -6.36392938	     -2.55122051	     -2.32585153	     -0.28405696	      0.84313715	      2.55065697	      3.57718275	      2.92985914	      2.43429766	    -26.74449297	     13.99051251	      0.00000000	      0.00000000	     36.03339318	     -1.43012514	      3.61860910	    -87.63558110	     -2.94171563	      0.00000000	      0.00000000	     -7.63923612	      5.57117382	      7.58852734	     21.04896272	    -32.26716386	     13.74282288	    102.15513364	     80.98103955	      0.00000000	      0.00000000	    -18.30911206	     -8.97863330	     -5.96454252	     79.00661359	     99.03062535	      0.00000000	      0.00000000
      0.43000000	     -7.08033039	     -1.10873301	     -1.55216199	     -0.28302282	      0.84893914	      2.54896574	      1.11804134	      0.94444404	      1.89725420	    -24.43903732	     10.04792598	      0.00000000	      0.00000000	     38.35113121	      0.66119781	      3.22806645	    -83.48809128	     -2.57416717	      0.00000000	      0.00000000	     -6.68144705	      3.95461697	      7.62374796	     21.75418731	    -30.96896587	     13.64547920	    103.76175877	     80.54305523	      0.00000000	      0.00000000	    -20.49077183	     -8.84843066	     -6.41158003	     79.96105737	     99.01827407	      0.00000000	      0.00000000
      0.44000000	     -7.85013872	      0.28668874	     -0.86423369	     -0.28181095	      0.85487025	      2.54718225	     -1.06455353	     -1.00882564	      1.08873542	    -22.30624535	      5.16650126	      0.00000000	      0.00000000	     40.30799593	      2.57663588	      2.89577311	    -78.64026384	     -2.36638405	      0.00000000	      0.00000000	     -5.71716270	      2.34659309	      7.73450761	     22.20687921	    -29.77644461	     13.66383467	    105.48155651	     80.10717358	      0.00000000	      0.00000000	    -22.48874297	     -8.77589310	     -6.84837107	     80.84710464	     99.08725882	      0.00000000	      0.00000000
